<svg width="438" height="130" viewBox="0 0 438 130" fill="none" xmlns="http://www.w3.org/2000/svg">
<g filter="url(#filter0_d_67_1151)">
<rect x="35" y="15" width="198" height="60" rx="10" fill="#4475F2"/>
</g>
<path d="M69.1892 52H71.3652V43.744L75.0612 48.8H75.3172L78.9972 43.904V52H81.1892V40.08H79.1092L75.2372 45.456L71.2692 40.08H69.1892V52ZM86.3985 52.192C86.9425 52.192 87.4225 52.0907 87.8385 51.888C88.2651 51.6747 88.6011 51.3653 88.8465 50.96V52H90.8305V43.296H88.7345V48.4C88.7345 48.976 88.5691 49.4347 88.2385 49.776C87.9078 50.1067 87.4865 50.272 86.9745 50.272C86.4518 50.272 86.0251 50.1067 85.6945 49.776C85.3745 49.4453 85.2145 49.0027 85.2145 48.448V43.296H83.1185V48.624C83.1185 49.6907 83.4065 50.5547 83.9825 51.216C84.5691 51.8667 85.3745 52.192 86.3985 52.192ZM92.7788 52H94.8748V39.888H92.7788V52ZM99.4501 52.192C100.581 52.192 101.487 51.8187 102.17 51.072V52H104.154V46.208C104.154 45.6 103.999 45.0613 103.69 44.592C103.381 44.1227 102.954 43.76 102.41 43.504C101.877 43.2373 101.253 43.104 100.538 43.104C99.6634 43.104 98.8848 43.312 98.2021 43.728C97.5194 44.144 97.0501 44.6933 96.7941 45.376L98.5061 46.208C98.6661 45.8133 98.9168 45.4987 99.2581 45.264C99.5994 45.0187 99.9994 44.896 100.458 44.896C100.938 44.896 101.322 45.024 101.61 45.28C101.909 45.5253 102.058 45.8347 102.058 46.208V46.496L99.4661 46.912C98.4421 47.0827 97.6848 47.408 97.1941 47.888C96.7034 48.368 96.4581 48.9707 96.4581 49.696C96.4581 50.464 96.7301 51.072 97.2741 51.52C97.8181 51.968 98.5434 52.192 99.4501 52.192ZM98.6341 49.616C98.6341 49.008 99.0448 48.624 99.8661 48.464L102.058 48.096V48.448C102.058 49.0453 101.85 49.552 101.434 49.968C101.029 50.384 100.495 50.592 99.8341 50.592C99.4821 50.592 99.1941 50.5067 98.9701 50.336C98.7461 50.1547 98.6341 49.9147 98.6341 49.616ZM106.091 42.32H108.187V40.08H106.091V42.32ZM106.091 52H108.187V43.296H106.091V52ZM116.278 52.192C116.94 52.192 117.516 52.08 118.006 51.856C118.497 51.632 118.881 51.3227 119.158 50.928C119.436 50.5227 119.574 50.0587 119.574 49.536C119.574 48.928 119.382 48.4053 118.998 47.968C118.614 47.5307 118.06 47.2107 117.334 47.008L115.942 46.592C115.644 46.5067 115.398 46.3947 115.206 46.256C115.014 46.1173 114.918 45.9253 114.918 45.68C114.918 45.424 115.02 45.216 115.222 45.056C115.425 44.896 115.702 44.816 116.054 44.816C116.492 44.816 116.886 44.9333 117.238 45.168C117.601 45.4027 117.852 45.7173 117.99 46.112L119.59 45.36C119.324 44.656 118.876 44.1067 118.246 43.712C117.617 43.3067 116.892 43.104 116.07 43.104C115.441 43.104 114.881 43.216 114.39 43.44C113.91 43.664 113.532 43.9787 113.254 44.384C112.988 44.7787 112.854 45.2427 112.854 45.776C112.854 46.3733 113.041 46.8907 113.414 47.328C113.798 47.7653 114.358 48.0907 115.094 48.304L116.518 48.704C116.796 48.7787 117.03 48.8907 117.222 49.04C117.425 49.1787 117.526 49.3707 117.526 49.616C117.526 49.904 117.409 50.1333 117.174 50.304C116.95 50.464 116.652 50.544 116.278 50.544C115.788 50.544 115.345 50.4053 114.95 50.128C114.556 49.8507 114.241 49.4667 114.006 48.976L112.438 49.728C112.694 50.4747 113.164 51.072 113.846 51.52C114.54 51.968 115.35 52.192 116.278 52.192ZM125.313 52.192C126.198 52.192 126.972 51.9947 127.633 51.6C128.305 51.1947 128.774 50.6827 129.041 50.064L127.345 49.232C127.153 49.5627 126.886 49.8347 126.545 50.048C126.214 50.2507 125.809 50.352 125.329 50.352C124.7 50.352 124.172 50.16 123.745 49.776C123.318 49.392 123.073 48.88 123.009 48.24H129.281C129.324 48.1227 129.35 47.9893 129.361 47.84C129.382 47.68 129.393 47.52 129.393 47.36C129.393 46.5813 129.228 45.872 128.897 45.232C128.566 44.592 128.086 44.08 127.457 43.696C126.828 43.3013 126.06 43.104 125.153 43.104C124.342 43.104 123.606 43.3013 122.945 43.696C122.294 44.0907 121.777 44.6293 121.393 45.312C121.02 45.984 120.833 46.7573 120.833 47.632C120.833 48.4747 121.02 49.2427 121.393 49.936C121.766 50.6293 122.289 51.1787 122.961 51.584C123.633 51.9893 124.417 52.192 125.313 52.192ZM125.153 44.832C125.708 44.832 126.166 45.0027 126.529 45.344C126.902 45.6747 127.11 46.1067 127.153 46.64H123.057C123.174 46.064 123.42 45.6213 123.793 45.312C124.177 44.992 124.63 44.832 125.153 44.832ZM130.982 52H133.078V49.344L134.198 48.128L136.646 52H139.046L135.766 46.8L138.982 43.296H136.374L133.078 46.752V39.888H130.982V52ZM142.856 52.192C143.987 52.192 144.894 51.8187 145.576 51.072V52H147.56V46.208C147.56 45.6 147.406 45.0613 147.096 44.592C146.787 44.1227 146.36 43.76 145.816 43.504C145.283 43.2373 144.659 43.104 143.944 43.104C143.07 43.104 142.291 43.312 141.608 43.728C140.926 44.144 140.456 44.6933 140.2 45.376L141.912 46.208C142.072 45.8133 142.323 45.4987 142.664 45.264C143.006 45.0187 143.406 44.896 143.864 44.896C144.344 44.896 144.728 45.024 145.016 45.28C145.315 45.5253 145.464 45.8347 145.464 46.208V46.496L142.872 46.912C141.848 47.0827 141.091 47.408 140.6 47.888C140.11 48.368 139.864 48.9707 139.864 49.696C139.864 50.464 140.136 51.072 140.68 51.52C141.224 51.968 141.95 52.192 142.856 52.192ZM142.04 49.616C142.04 49.008 142.451 48.624 143.272 48.464L145.464 48.096V48.448C145.464 49.0453 145.256 49.552 144.84 49.968C144.435 50.384 143.902 50.592 143.24 50.592C142.888 50.592 142.6 50.5067 142.376 50.336C142.152 50.1547 142.04 49.9147 142.04 49.616ZM149.498 52H151.594V47.152C151.594 46.4907 151.775 45.9787 152.138 45.616C152.511 45.2427 152.991 45.056 153.578 45.056H154.33V43.2H153.818C153.284 43.2 152.815 43.296 152.41 43.488C152.004 43.68 151.69 44.0267 151.466 44.528V43.296H149.498V52ZM158.122 52.192C159.253 52.192 160.159 51.8187 160.842 51.072V52H162.826V46.208C162.826 45.6 162.671 45.0613 162.362 44.592C162.053 44.1227 161.626 43.76 161.082 43.504C160.549 43.2373 159.925 43.104 159.21 43.104C158.335 43.104 157.557 43.312 156.874 43.728C156.191 44.144 155.722 44.6933 155.466 45.376L157.178 46.208C157.338 45.8133 157.589 45.4987 157.93 45.264C158.271 45.0187 158.671 44.896 159.13 44.896C159.61 44.896 159.994 45.024 160.282 45.28C160.581 45.5253 160.73 45.8347 160.73 46.208V46.496L158.138 46.912C157.114 47.0827 156.357 47.408 155.866 47.888C155.375 48.368 155.13 48.9707 155.13 49.696C155.13 50.464 155.402 51.072 155.946 51.52C156.49 51.968 157.215 52.192 158.122 52.192ZM157.306 49.616C157.306 49.008 157.717 48.624 158.538 48.464L160.73 48.096V48.448C160.73 49.0453 160.522 49.552 160.106 49.968C159.701 50.384 159.167 50.592 158.506 50.592C158.154 50.592 157.866 50.5067 157.642 50.336C157.418 50.1547 157.306 49.9147 157.306 49.616ZM164.763 52H166.859V46.896C166.859 46.3307 167.019 45.8773 167.339 45.536C167.67 45.1947 168.097 45.024 168.619 45.024C169.142 45.024 169.563 45.1947 169.883 45.536C170.214 45.8667 170.379 46.32 170.379 46.896V52H172.475V46.4C172.475 45.7493 172.337 45.1787 172.059 44.688C171.782 44.1867 171.393 43.7973 170.891 43.52C170.401 43.2427 169.835 43.104 169.195 43.104C168.651 43.104 168.161 43.2107 167.723 43.424C167.297 43.6373 166.966 43.952 166.731 44.368V43.296H164.763V52ZM178.472 55.52C179.304 55.52 180.04 55.3493 180.68 55.008C181.32 54.6667 181.821 54.1973 182.184 53.6C182.546 53.0027 182.728 52.3253 182.728 51.568V43.296H180.744V44.304C180.082 43.504 179.192 43.104 178.072 43.104C177.272 43.104 176.557 43.2907 175.928 43.664C175.298 44.0267 174.802 44.528 174.44 45.168C174.077 45.808 173.896 46.5387 173.896 47.36C173.896 48.1707 174.077 48.9013 174.44 49.552C174.802 50.2027 175.304 50.7147 175.944 51.088C176.584 51.4613 177.309 51.648 178.12 51.648C179.176 51.648 180.013 51.3067 180.632 50.624V51.568C180.632 52.208 180.429 52.704 180.024 53.056C179.618 53.4187 179.101 53.6 178.472 53.6C177.917 53.6 177.448 53.472 177.064 53.216C176.69 52.9707 176.44 52.6453 176.312 52.24L174.36 52.976C174.637 53.744 175.144 54.3573 175.88 54.816C176.626 55.2853 177.49 55.52 178.472 55.52ZM178.376 49.712C177.704 49.712 177.149 49.4933 176.712 49.056C176.285 48.608 176.072 48.048 176.072 47.376C176.072 46.928 176.168 46.528 176.36 46.176C176.562 45.8133 176.84 45.5307 177.192 45.328C177.544 45.1253 177.938 45.024 178.376 45.024C179.037 45.024 179.576 45.248 179.992 45.696C180.418 46.1333 180.632 46.6933 180.632 47.376C180.632 48.0587 180.418 48.6187 179.992 49.056C179.576 49.4933 179.037 49.712 178.376 49.712ZM187.801 48.576H194.825L191.689 52H194.169L197.881 48.064V47.2L194.169 43.296H191.689L194.841 46.72H187.801V48.576Z" fill="white"/>
<path d="M341.224 51H343.536V46.325H345.95C346.811 46.325 347.571 46.172 348.228 45.866C348.885 45.5487 349.401 45.0897 349.775 44.489C350.16 43.8883 350.353 43.1687 350.353 42.33C350.353 41.4687 350.166 40.7433 349.792 40.154C349.418 39.5647 348.897 39.117 348.228 38.811C347.571 38.4937 346.811 38.335 345.95 38.335H341.224V51ZM343.536 44.285V40.375H345.984C346.607 40.375 347.106 40.5507 347.48 40.902C347.854 41.2533 348.041 41.7293 348.041 42.33C348.041 42.9193 347.854 43.3953 347.48 43.758C347.106 44.1093 346.607 44.285 345.984 44.285H343.536ZM355.358 51.204C355.936 51.204 356.446 51.0963 356.888 50.881C357.342 50.6543 357.699 50.3257 357.959 49.895V51H360.067V41.752H357.84V47.175C357.84 47.787 357.665 48.2743 357.313 48.637C356.962 48.9883 356.514 49.164 355.97 49.164C355.415 49.164 354.962 48.9883 354.61 48.637C354.27 48.2857 354.1 47.8153 354.1 47.226V41.752H351.873V47.413C351.873 48.5463 352.179 49.4643 352.791 50.167C353.415 50.8583 354.27 51.204 355.358 51.204ZM366.354 51.102C366.524 51.102 366.711 51.0907 366.915 51.068C367.119 51.0453 367.3 51.0227 367.459 51V49.096C367.243 49.13 367.045 49.147 366.864 49.147C366.32 49.147 365.923 49.0223 365.674 48.773C365.424 48.5237 365.3 48.1667 365.3 47.702V43.741H367.425V41.752H365.3V39.644H363.073V40.358C363.073 40.8113 362.948 41.157 362.699 41.395C362.449 41.633 362.098 41.752 361.645 41.752H361.475V43.741H363.073V47.821C363.073 48.8523 363.356 49.657 363.923 50.235C364.501 50.813 365.311 51.102 366.354 51.102ZM371.915 51.204C373.117 51.204 374.08 50.8073 374.805 50.014V51H376.913V44.846C376.913 44.2 376.749 43.6277 376.42 43.129C376.092 42.6303 375.638 42.245 375.06 41.973C374.494 41.6897 373.831 41.548 373.071 41.548C372.142 41.548 371.315 41.769 370.589 42.211C369.864 42.653 369.365 43.2367 369.093 43.962L370.912 44.846C371.082 44.4267 371.349 44.0923 371.711 43.843C372.074 43.5823 372.499 43.452 372.986 43.452C373.496 43.452 373.904 43.588 374.21 43.86C374.528 44.1207 374.686 44.4493 374.686 44.846V45.152L371.932 45.594C370.844 45.7753 370.04 46.121 369.518 46.631C368.997 47.141 368.736 47.7813 368.736 48.552C368.736 49.368 369.025 50.014 369.603 50.49C370.181 50.966 370.952 51.204 371.915 51.204ZM371.048 48.467C371.048 47.821 371.485 47.413 372.357 47.243L374.686 46.852V47.226C374.686 47.8607 374.465 48.399 374.023 48.841C373.593 49.283 373.026 49.504 372.323 49.504C371.949 49.504 371.643 49.4133 371.405 49.232C371.167 49.0393 371.048 48.7843 371.048 48.467ZM378.972 51H381.199V45.849C381.199 45.1463 381.391 44.6023 381.777 44.217C382.173 43.8203 382.683 43.622 383.307 43.622H384.106V41.65H383.562C382.995 41.65 382.496 41.752 382.066 41.956C381.635 42.16 381.301 42.5283 381.063 43.061V41.752H378.972V51ZM388.538 51H392.669C394.007 51 395.168 50.728 396.154 50.184C397.152 49.64 397.922 48.892 398.466 47.94C399.01 46.988 399.282 45.8943 399.282 44.659C399.282 43.4123 399.01 42.3187 398.466 41.378C397.922 40.426 397.157 39.6837 396.171 39.151C395.185 38.607 394.018 38.335 392.669 38.335H388.538V51ZM390.85 48.96V40.375H392.72C393.582 40.375 394.324 40.5507 394.947 40.902C395.582 41.2533 396.075 41.752 396.426 42.398C396.778 43.0327 396.953 43.7863 396.953 44.659C396.953 45.5317 396.778 46.291 396.426 46.937C396.086 47.583 395.599 48.0817 394.964 48.433C394.33 48.7843 393.582 48.96 392.72 48.96H390.85ZM405.321 51.204C406.262 51.204 407.084 50.9943 407.786 50.575C408.5 50.1443 408.999 49.6003 409.282 48.943L407.48 48.059C407.276 48.4103 406.993 48.6993 406.63 48.926C406.279 49.1413 405.848 49.249 405.338 49.249C404.67 49.249 404.109 49.045 403.655 48.637C403.202 48.229 402.941 47.685 402.873 47.005H409.537C409.583 46.8803 409.611 46.7387 409.622 46.58C409.645 46.41 409.656 46.24 409.656 46.07C409.656 45.2427 409.481 44.489 409.129 43.809C408.778 43.129 408.268 42.585 407.599 42.177C406.931 41.7577 406.115 41.548 405.151 41.548C404.29 41.548 403.508 41.7577 402.805 42.177C402.114 42.5963 401.564 43.1687 401.156 43.894C400.76 44.608 400.561 45.4297 400.561 46.359C400.561 47.2543 400.76 48.0703 401.156 48.807C401.553 49.5437 402.108 50.1273 402.822 50.558C403.536 50.9887 404.369 51.204 405.321 51.204ZM405.151 43.384C405.741 43.384 406.228 43.5653 406.613 43.928C407.01 44.2793 407.231 44.7383 407.276 45.305H402.924C403.049 44.693 403.31 44.2227 403.706 43.894C404.114 43.554 404.596 43.384 405.151 43.384ZM411.345 51H413.572V45.577C413.572 44.9763 413.736 44.4947 414.065 44.132C414.393 43.7693 414.824 43.588 415.357 43.588C415.901 43.588 416.331 43.7693 416.649 44.132C416.977 44.4833 417.142 44.965 417.142 45.577V51H419.369V45.577C419.369 44.9763 419.533 44.4947 419.862 44.132C420.19 43.7693 420.621 43.588 421.154 43.588C421.698 43.588 422.128 43.7693 422.446 44.132C422.774 44.4833 422.939 44.965 422.939 45.577V51H425.166V45.05C425.166 44.3587 425.013 43.7523 424.707 43.231C424.412 42.6983 424.01 42.2847 423.5 41.99C422.99 41.6953 422.406 41.548 421.749 41.548C421.137 41.548 420.581 41.6727 420.083 41.922C419.595 42.1713 419.193 42.5453 418.876 43.044C418.604 42.5907 418.213 42.228 417.703 41.956C417.204 41.684 416.643 41.548 416.02 41.548C415.442 41.548 414.926 41.6613 414.473 41.888C414.019 42.1147 413.674 42.4547 413.436 42.908V41.752H411.345V51ZM431.572 51.204C432.467 51.204 433.283 51 434.02 50.592C434.756 50.1727 435.346 49.6003 435.788 48.875C436.23 48.1383 436.451 47.3053 436.451 46.376C436.451 45.4467 436.23 44.6193 435.788 43.894C435.357 43.1687 434.773 42.5963 434.037 42.177C433.3 41.7577 432.478 41.548 431.572 41.548C430.654 41.548 429.826 41.7577 429.09 42.177C428.353 42.5963 427.764 43.1687 427.322 43.894C426.891 44.6193 426.676 45.4467 426.676 46.376C426.676 47.3053 426.891 48.1327 427.322 48.858C427.764 49.5833 428.353 50.1557 429.09 50.575C429.838 50.9943 430.665 51.204 431.572 51.204ZM431.572 49.164C431.073 49.164 430.625 49.045 430.229 48.807C429.843 48.569 429.537 48.2403 429.311 47.821C429.095 47.3903 428.988 46.9087 428.988 46.376C428.988 45.8433 429.095 45.3673 429.311 44.948C429.537 44.5287 429.843 44.2 430.229 43.962C430.625 43.7127 431.073 43.588 431.572 43.588C432.07 43.588 432.507 43.7127 432.881 43.962C433.266 44.2 433.566 44.5287 433.782 44.948C434.008 45.3673 434.122 45.8433 434.122 46.376C434.122 46.9087 434.008 47.3903 433.782 47.821C433.566 48.2403 433.266 48.569 432.881 48.807C432.507 49.045 432.07 49.164 431.572 49.164Z" fill="#686D77"/>
<g filter="url(#filter1_d_67_1151)">
<circle cx="299" cy="45" r="25" fill="white"/>
<circle cx="299" cy="45" r="24.5" stroke="#4475F2"/>
</g>
<path d="M305.73 46.4425L294.913 52.6879L294.913 40.1971L305.73 46.4425Z" fill="#4475F2"/>
<defs>
<filter id="filter0_d_67_1151" x="0" y="0" width="268" height="130" filterUnits="userSpaceOnUse" color-interpolation-filters="sRGB">
<feFlood flood-opacity="0" result="BackgroundImageFix"/>
<feColorMatrix in="SourceAlpha" type="matrix" values="0 0 0 0 0 0 0 0 0 0 0 0 0 0 0 0 0 0 127 0" result="hardAlpha"/>
<feOffset dy="20"/>
<feGaussianBlur stdDeviation="17.5"/>
<feColorMatrix type="matrix" values="0 0 0 0 0.266667 0 0 0 0 0.458824 0 0 0 0 0.94902 0 0 0 0.21 0"/>
<feBlend mode="normal" in2="BackgroundImageFix" result="effect1_dropShadow_67_1151"/>
<feBlend mode="normal" in="SourceGraphic" in2="effect1_dropShadow_67_1151" result="shape"/>
</filter>
<filter id="filter1_d_67_1151" x="254" y="15" width="90" height="90" filterUnits="userSpaceOnUse" color-interpolation-filters="sRGB">
<feFlood flood-opacity="0" result="BackgroundImageFix"/>
<feColorMatrix in="SourceAlpha" type="matrix" values="0 0 0 0 0 0 0 0 0 0 0 0 0 0 0 0 0 0 127 0" result="hardAlpha"/>
<feOffset dy="15"/>
<feGaussianBlur stdDeviation="10"/>
<feColorMatrix type="matrix" values="0 0 0 0 0.266667 0 0 0 0 0.458824 0 0 0 0 0.94902 0 0 0 0.2 0"/>
<feBlend mode="normal" in2="BackgroundImageFix" result="effect1_dropShadow_67_1151"/>
<feBlend mode="normal" in="SourceGraphic" in2="effect1_dropShadow_67_1151" result="shape"/>
</filter>
</defs>
</svg>
